<?xml version="1.0" standalone="no"?>
<!DOCTYPE svg PUBLIC "-//W3C//DTD SVG 20010904//EN"
 "http://www.w3.org/TR/2001/REC-SVG-20010904/DTD/svg10.dtd">
<svg version="1.0" xmlns="http://www.w3.org/2000/svg"
 width="1242.000000pt" height="1241.000000pt" viewBox="0 0 1242.000000 1241.000000"
 preserveAspectRatio="xMidYMid meet">

<g transform="translate(0.000000,1241.000000) scale(0.100000,-0.100000)"
fill="#000000" stroke="none">
<path d="M10 6205 l0 -6195 6200 0 6200 0 0 6195 0 6195 -6200 0 -6200 0 0
-6195z m7625 2518 c533 -311 977 -573 985 -582 13 -14 14 -129 10 -951 l-5
-935 -677 4 -678 4 0 -224 c0 -123 5 -478 10 -789 5 -311 10 -681 11 -824 l3
-258 -320 -194 c-175 -106 -325 -194 -331 -194 -10 0 -13 559 -13 2761 0 2605
1 2761 17 2755 10 -4 454 -262 988 -573z m-1723 207 c1 -198 2 -372 2 -386 1
-24 -28 -43 -324 -220 -179 -106 -331 -194 -339 -194 -10 0 -12 9 -7 38 3 20
6 197 6 392 l0 355 322 188 c178 103 326 187 330 187 5 0 9 -162 10 -360z m8
-3190 c0 -1569 -3 -1970 -12 -1970 -7 0 -463 263 -1013 584 l-1000 584 -3 966
-2 966 257 0 c142 0 288 -3 326 -7 l67 -6 0 -751 0 -751 353 -212 352 -211 6
146 c4 81 7 629 8 1218 l1 1071 318 170 c174 94 323 172 330 172 9 1 12 -399
12 -1969z"/>
<path d="M7292 7526 c2 -349 5 -636 8 -639 3 -3 157 -7 343 -9 l337 -3 -1 390
c-1 214 -4 414 -7 444 l-7 55 -330 197 c-181 109 -334 198 -338 198 -5 1 -7
-284 -5 -633z"/>
</g>
</svg>
